<?xml version="1.0" standalone="no"?>
<!DOCTYPE svg PUBLIC "-//W3C//DTD SVG 20010904//EN"
 "http://www.w3.org/TR/2001/REC-SVG-20010904/DTD/svg10.dtd">
<svg version="1.0" xmlns="http://www.w3.org/2000/svg"
 width="1.65rem" height="1.65rem" viewBox="0 0 500.000000 500.000000"
 preserveAspectRatio="xMidYMid meet">

<g transform="translate(0.000000,500.000000) scale(0.100000,-0.100000)"
fill="#fff" stroke="none">
<path d="M2145 3529 c-165 -72 -306 -136 -312 -141 -27 -22 -9 -37 100 -85
l112 -50 -2 -109 c-7 -319 -6 -360 10 -428 53 -214 162 -373 306 -443 48 -24
68 -28 141 -28 73 0 93 4 141 28 144 70 254 230 305 443 17 68 18 121 11 428
l-2 109 113 50 c108 48 126 63 100 85 -7 5 -149 69 -315 141 -264 114 -309
131 -355 131 -45 -1 -96 -20 -353 -131z m161 -581 c187 -83 201 -83 392 2 118
52 145 61 153 49 6 -8 8 -51 4 -101 l-6 -88 26 12 c14 6 28 9 31 5 11 -10 -16
-139 -43 -207 -116 -291 -355 -392 -563 -238 -93 68 -183 243 -205 401 -8 50
-1 57 37 36 19 -10 20 -9 13 65 -7 75 -2 126 13 126 5 0 71 -28 148 -62z"/>
<path d="M860 3296 c-176 -77 -235 -107 -235 -120 0 -12 25 -28 83 -53 l82
-35 -2 -187 c-2 -153 0 -198 15 -251 40 -147 117 -260 217 -318 39 -23 56 -27
125 -27 69 0 86 4 125 27 100 58 177 171 217 318 15 53 17 98 15 251 l-2 187
82 35 c59 25 83 41 83 53 0 13 -57 42 -235 120 -195 85 -243 103 -285 103 -41
0 -90 -18 -285 -103z m142 -450 c61 -27 122 -46 143 -46 21 0 83 20 151 50 63
28 117 50 119 50 3 0 5 -36 5 -80 0 -79 0 -81 22 -69 21 11 21 10 14 -46 -16
-137 -107 -280 -212 -331 -157 -77 -332 41 -398 268 -9 31 -16 70 -16 86 0 25
3 29 20 25 19 -5 20 0 20 72 0 58 3 76 13 72 6 -3 60 -26 119 -51z"/>
<path d="M3575 3299 c-126 -55 -236 -106 -243 -113 -17 -17 -8 -23 91 -66 l77
-33 -2 -186 c-2 -153 0 -198 15 -251 40 -147 117 -260 217 -318 39 -23 56 -27
125 -27 69 0 86 4 125 27 100 58 177 171 217 318 15 53 17 98 15 251 l-2 187
82 35 c58 25 83 41 83 53 0 13 -59 43 -235 120 -196 86 -243 103 -285 103 -41
0 -90 -18 -280 -100z m137 -453 c62 -27 122 -46 143 -46 21 0 81 19 143 46 59
25 113 48 120 51 9 4 12 -15 12 -76 0 -79 1 -81 20 -71 18 10 20 8 20 -17 0
-46 -34 -157 -64 -208 -117 -199 -310 -232 -447 -77 -66 75 -119 202 -119 284
0 26 2 28 20 18 19 -10 20 -8 20 71 0 61 3 80 13 76 6 -3 60 -26 119 -51z"/>
<path d="M1872 3278 c-15 -15 -16 -45 -1 -50 8 -3 7 -61 -2 -209 -10 -169 -10
-214 1 -252 7 -26 16 -47 20 -47 4 0 14 23 23 50 15 46 15 68 1 247 -10 133
-11 200 -4 207 15 15 12 53 -6 60 -20 8 -18 8 -32 -6z"/>
<path d="M663 3113 c-15 -5 -17 -34 -5 -48 5 -6 5 -48 1 -95 -11 -127 -10
-245 2 -277 l11 -28 15 40 c12 34 12 64 2 191 -8 117 -8 157 1 174 9 18 9 25
-2 35 -7 7 -19 11 -25 8z"/>
<path d="M3375 3112 c-6 -4 -10 -51 -10 -107 0 -55 -2 -140 -4 -190 -2 -56 1
-101 9 -120 l12 -30 15 40 c12 34 12 64 2 191 -8 117 -8 157 1 174 9 18 9 25
-2 36 -7 7 -18 10 -23 6z"/>
<path d="M735 2307 c-199 -74 -328 -270 -313 -477 8 -110 50 -168 150 -207 37
-15 97 -18 466 -21 l422 -3 0 80 c0 179 67 351 185 480 30 32 55 61 55 64 0
12 -101 68 -155 87 -81 28 -100 26 -115 -10 -29 -69 -150 -120 -285 -120 -135
0 -256 51 -285 120 -15 37 -40 38 -125 7z"/>
<path d="M3451 2309 c-51 -18 -151 -75 -151 -86 0 -3 24 -31 53 -62 115 -126
176 -276 185 -454 l5 -108 421 3 c367 3 427 6 464 21 100 39 142 97 150 207
15 211 -119 410 -323 480 -81 28 -100 26 -115 -11 -65 -156 -493 -159 -567 -4
-20 41 -40 44 -122 14z"/>
<path d="M2065 2280 c-71 -15 -158 -52 -227 -97 -170 -111 -268 -297 -268
-504 0 -143 36 -222 125 -275 102 -59 100 -59 805 -59 705 0 703 0 805 59 89
53 125 132 125 275 0 207 -98 392 -268 504 -68 45 -176 89 -244 100 -35 5 -38
4 -48 -28 -6 -19 -31 -52 -56 -74 -119 -105 -369 -128 -551 -50 -56 24 -119
83 -133 125 -6 19 -15 34 -18 33 -4 -1 -25 -5 -47 -9z"/>
</g>
</svg>
